# xmcd
#
# Track frame offsets:
#	150
#	18345
#	33333
#	51443
#	69296
#	88751
#
# Disc length: 1399 seconds
#
# Revision: 0
# Processed by: cddbd v1.5.2PL0 Copyright (c) Steve Scherf et al.
# Submitted via: dBpowerAMP V4.0
#
DISCID=46057506
DTITLE=Saint Johns Band - Green Cloud
DYEAR=1900
DGENRE=
TTITLE0=Stars Will Move Tonight
TTITLE1=Heaven
TTITLE2=Autumn Grace
TTITLE3=Green Cloud
TTITLE4=Me Amd My Brother
TTITLE5=Derics Song
EXTD=
EXTT0=
EXTT1=
EXTT2=
EXTT3=
EXTT4=
EXTT5=
PLAYORDER=
